<svg xmlns="http://www.w3.org/2000/svg" width="56" height="56" fill="none"><path fill="#2D76F9" d="M16.333 14A2.333 2.333 0 0 1 14 11.667V7a2.333 2.333 0 1 1 4.667 0v4.667A2.333 2.333 0 0 1 16.336 14h-.003Zm23.334 0a2.333 2.333 0 0 1-2.334-2.333V7A2.334 2.334 0 0 1 42 7v4.667A2.333 2.333 0 0 1 39.669 14h-.002Z" opacity=".5"/><path fill="#2D76F9" d="M44.333 9.333H42v2.334a2.333 2.333 0 1 1-4.667 0V9.333H18.667v2.334a2.334 2.334 0 0 1-4.667 0V9.333h-2.333a7 7 0 0 0-7 7V21h46.666v-4.667a7 7 0 0 0-7-7ZM16.333 32.667a2.333 2.333 0 1 0 0-4.667 2.333 2.333 0 0 0 0 4.667ZM16.333 42a2.333 2.333 0 1 0 0-4.667 2.333 2.333 0 0 0 0 4.667ZM28 32.667A2.333 2.333 0 1 0 28 28a2.333 2.333 0 0 0 0 4.667ZM28 42a2.333 2.333 0 1 0 0-4.666A2.333 2.333 0 0 0 28 42ZM39.667 32.667a2.333 2.333 0 1 0 0-4.667 2.333 2.333 0 0 0 0 4.667ZM39.667 42a2.333 2.333 0 1 0 0-4.667 2.333 2.333 0 0 0 0 4.667Z"/><path fill="#2D76F9" d="M4.667 21v23.333a7 7 0 0 0 7 7h32.666a7 7 0 0 0 7-7V21H4.667Zm11.666 21a2.333 2.333 0 1 1 0-4.667 2.333 2.333 0 0 1 0 4.667Zm0-9.333a2.333 2.333 0 1 1 0-4.667 2.333 2.333 0 0 1 0 4.667ZM28 42a2.333 2.333 0 1 1 0-4.667A2.333 2.333 0 0 1 28 42Zm0-9.333A2.333 2.333 0 1 1 28 28a2.333 2.333 0 0 1 0 4.667ZM39.667 42a2.333 2.333 0 1 1 0-4.666 2.333 2.333 0 0 1 0 4.666Zm0-9.333a2.333 2.333 0 1 1 0-4.666 2.333 2.333 0 0 1 0 4.666Z" opacity=".5"/></svg>