<svg xmlns="http://www.w3.org/2000/svg" width="56" height="56" fill="none"><path fill="#2D76F9" d="M28 33.122c-.41 0-.812-.108-1.167-.31l-21-12.13a2.333 2.333 0 0 1 0-4.04l21-12.12a2.352 2.352 0 0 1 2.334 0l21 12.12a2.333 2.333 0 0 1 0 4.04l-21 12.13c-.355.203-.758.31-1.167.31Z" opacity=".25"/><path fill="#2D76F9" d="m50.167 25.975-4.583-2.646-16.417 9.482a2.34 2.34 0 0 1-2.334 0L10.416 23.33l-4.583 2.646a2.333 2.333 0 0 0 0 4.04l21 12.13a2.34 2.34 0 0 0 2.334 0l21-12.13a2.333 2.333 0 0 0 0-4.04Z" opacity=".5"/><path fill="#2D76F9" d="m50.167 35.308-4.583-2.646-16.417 9.483a2.34 2.34 0 0 1-2.334 0l-16.417-9.483-4.583 2.646a2.333 2.333 0 0 0 0 4.041l21 12.129a2.34 2.34 0 0 0 2.334 0l21-12.129a2.333 2.333 0 0 0 0-4.041Z"/></svg>