<svg xmlns="http://www.w3.org/2000/svg" width="135" height="36" fill="none"><path fill="#D6E5FD" d="M14.464 3.536a5 5 0 0 1 7.071 0l10.93 10.928a5 5 0 0 1 0 7.071l-10.93 10.93a5 5 0 0 1-7.07 0l-10.93-10.93a5 5 0 0 1 0-7.07l10.93-10.93Z"/><path fill="#2D76F9" d="M18 13.5a.75.75 0 0 1 .75.75v3h1.5a.75.75 0 1 1 0 1.5H18a.75.75 0 0 1-.75-.75v-3.75a.75.75 0 0 1 .75-.75Z"/><path fill="#2D76F9" d="M10.5 18a7.5 7.5 0 1 0 15 0 7.5 7.5 0 0 0-15 0Zm6.75-3.75a.75.75 0 1 1 1.5 0v3h1.5a.75.75 0 1 1 0 1.5H18a.75.75 0 0 1-.75-.75v-3.75Z" opacity=".5"/><path fill="#212121" d="M57.52 22.542c.144.216.216.426.216.63a.836.836 0 0 1-.342.684 1.17 1.17 0 0 1-.774.27c-.192 0-.378-.042-.558-.126a1.288 1.288 0 0 1-.432-.414l-2.394-3.636c-.24-.384-.498-.654-.774-.81-.264-.156-.612-.234-1.044-.234h-1.764v4.032c0 .36-.102.648-.306.864-.204.204-.48.306-.828.306s-.63-.102-.846-.306c-.204-.216-.306-.504-.306-.864v-10.53c0-.348.096-.618.288-.81.204-.192.48-.288.828-.288h4.5c1.44 0 2.532.324 3.276.972.756.636 1.134 1.56 1.134 2.772 0 .984-.282 1.794-.846 2.43-.552.624-1.338 1.026-2.358 1.206.348.084.654.234.918.45s.522.516.774.9l1.638 2.502Zm-4.86-5.418c.876 0 1.518-.162 1.926-.486.408-.336.612-.846.612-1.53 0-.696-.204-1.2-.612-1.512-.408-.324-1.05-.486-1.926-.486h-3.024v4.014h3.024Zm13.992 4.464c.204 0 .366.078.486.234.132.156.198.366.198.63 0 .372-.222.684-.666.936-.408.228-.87.414-1.386.558a5.957 5.957 0 0 1-1.476.198c-1.416 0-2.538-.408-3.366-1.224-.828-.816-1.242-1.932-1.242-3.348 0-.9.18-1.698.54-2.394a3.945 3.945 0 0 1 1.512-1.62c.66-.384 1.404-.576 2.232-.576.792 0 1.482.174 2.07.522a3.54 3.54 0 0 1 1.368 1.476c.324.636.486 1.386.486 2.25 0 .516-.228.774-.684.774h-5.31c.072.828.306 1.44.702 1.836.396.384.972.576 1.728.576.384 0 .72-.048 1.008-.144.3-.096.636-.228 1.008-.396.36-.192.624-.288.792-.288Zm-3.114-5.022c-.612 0-1.104.192-1.476.576-.36.384-.576.936-.648 1.656h4.068c-.024-.732-.204-1.284-.54-1.656-.336-.384-.804-.576-1.404-.576Zm16.168-1.584c.96 0 1.692.288 2.196.864.516.564.774 1.482.774 2.754v4.428c0 .348-.108.618-.324.81-.204.18-.474.27-.81.27-.324 0-.594-.09-.81-.27-.204-.192-.306-.462-.306-.81V18.6c0-.66-.12-1.128-.36-1.404-.228-.288-.582-.432-1.062-.432-.588 0-1.056.204-1.404.612-.348.396-.522.942-.522 1.638v4.014c0 .348-.108.618-.324.81-.204.18-.468.27-.792.27s-.594-.09-.81-.27c-.216-.192-.324-.462-.324-.81V18.6c0-.66-.12-1.128-.36-1.404-.228-.288-.582-.432-1.062-.432-.588 0-1.056.204-1.404.612-.336.396-.504.942-.504 1.638v4.014c0 .348-.108.618-.324.81-.216.18-.486.27-.81.27-.324 0-.594-.09-.81-.27-.204-.192-.306-.462-.306-.81v-6.966c0-.336.108-.594.324-.774.216-.18.486-.27.81-.27.312 0 .564.09.756.27.204.168.306.414.306.738v.432a2.84 2.84 0 0 1 1.098-1.098c.468-.252 1.002-.378 1.602-.378 1.32 0 2.202.552 2.646 1.656a2.974 2.974 0 0 1 1.17-1.206 3.41 3.41 0 0 1 1.746-.45Zm6.373 9.126c-.324 0-.594-.09-.81-.27-.204-.192-.306-.462-.306-.81V16.08c0-.348.102-.612.306-.792.216-.18.486-.27.81-.27.324 0 .594.09.81.27.216.18.324.444.324.792v6.948c0 .348-.108.618-.324.81-.216.18-.486.27-.81.27Zm0-10.692c-.408 0-.732-.108-.972-.324-.24-.228-.36-.522-.36-.882s.12-.648.36-.864c.24-.216.564-.324.972-.324.396 0 .714.108.954.324.252.216.378.504.378.864s-.12.654-.36.882c-.24.216-.564.324-.972.324Zm8.566 1.566c1.056 0 1.842.3 2.358.9.516.6.774 1.506.774 2.718v4.428c0 .336-.102.6-.306.792-.192.192-.462.288-.81.288-.348 0-.624-.096-.828-.288-.204-.192-.306-.456-.306-.792v-4.302c0-.684-.132-1.182-.396-1.494-.252-.312-.654-.468-1.206-.468-.648 0-1.17.204-1.566.612-.384.408-.576.954-.576 1.638v4.014c0 .336-.102.6-.306.792-.204.192-.48.288-.828.288s-.624-.096-.828-.288c-.192-.192-.288-.456-.288-.792v-6.966c0-.312.102-.564.306-.756.204-.192.48-.288.828-.288.312 0 .564.096.756.288.204.18.306.42.306.72v.486c.3-.492.702-.87 1.206-1.134.504-.264 1.074-.396 1.71-.396Zm12.762-3.762c.336 0 .612.096.828.288a.963.963 0 0 1 .324.756v10.764c0 .324-.102.582-.306.774-.204.192-.474.288-.81.288-.336 0-.606-.096-.81-.288-.204-.192-.306-.45-.306-.774v-.45a2.804 2.804 0 0 1-1.152 1.152c-.492.276-1.056.414-1.692.414a3.692 3.692 0 0 1-2.034-.576c-.588-.384-1.05-.924-1.386-1.62-.324-.708-.486-1.518-.486-2.43 0-.912.162-1.71.486-2.394.336-.684.798-1.212 1.386-1.584.588-.372 1.266-.558 2.034-.558.636 0 1.2.132 1.692.396s.87.636 1.134 1.116v-4.266c0-.3.096-.54.288-.72.204-.192.474-.288.81-.288Zm-3.33 11.178c.72 0 1.272-.246 1.656-.738.396-.492.594-1.194.594-2.106 0-.912-.198-1.608-.594-2.088-.384-.492-.93-.738-1.638-.738-.72 0-1.278.24-1.674.72-.396.48-.594 1.17-.594 2.07 0 .912.198 1.62.594 2.124.396.504.948.756 1.656.756Z"/><path fill="#2D76F9" d="M121.331 14.982c.96 0 1.692.288 2.196.864.516.564.774 1.482.774 2.754v4.428c0 .348-.108.618-.324.81-.204.18-.474.27-.81.27-.324 0-.594-.09-.81-.27-.204-.192-.306-.462-.306-.81V18.6c0-.66-.12-1.128-.36-1.404-.228-.288-.582-.432-1.062-.432-.588 0-1.056.204-1.404.612-.348.396-.522.942-.522 1.638v4.014c0 .348-.108.618-.324.81-.204.18-.468.27-.792.27s-.594-.09-.81-.27c-.216-.192-.324-.462-.324-.81V18.6c0-.66-.12-1.128-.36-1.404-.228-.288-.582-.432-1.062-.432-.588 0-1.056.204-1.404.612-.336.396-.504.942-.504 1.638v4.014c0 .348-.108.618-.324.81-.216.18-.486.27-.81.27-.324 0-.594-.09-.81-.27-.204-.192-.306-.462-.306-.81v-6.966c0-.336.108-.594.324-.774.216-.18.486-.27.81-.27.312 0 .564.09.756.27.204.168.306.414.306.738v.432a2.84 2.84 0 0 1 1.098-1.098c.468-.252 1.002-.378 1.602-.378 1.32 0 2.202.552 2.646 1.656a2.974 2.974 0 0 1 1.17-1.206 3.41 3.41 0 0 1 1.746-.45Zm12.223 6.606c.204 0 .366.078.486.234.132.156.198.366.198.63 0 .372-.222.684-.666.936-.408.228-.87.414-1.386.558a5.957 5.957 0 0 1-1.476.198c-1.416 0-2.538-.408-3.366-1.224-.828-.816-1.242-1.932-1.242-3.348 0-.9.18-1.698.54-2.394a3.945 3.945 0 0 1 1.512-1.62c.66-.384 1.404-.576 2.232-.576.792 0 1.482.174 2.07.522a3.54 3.54 0 0 1 1.368 1.476c.324.636.486 1.386.486 2.25 0 .516-.228.774-.684.774h-5.31c.072.828.306 1.44.702 1.836.396.384.972.576 1.728.576.384 0 .72-.048 1.008-.144.3-.096.636-.228 1.008-.396.36-.192.624-.288.792-.288Zm-3.114-5.022c-.612 0-1.104.192-1.476.576-.36.384-.576.936-.648 1.656h4.068c-.024-.732-.204-1.284-.54-1.656-.336-.384-.804-.576-1.404-.576Z"/></svg>