<svg xmlns="http://www.w3.org/2000/svg" width="308" height="100" fill="none"><path fill="#D6E5FD" d="M46.465 3.536a5 5 0 0 1 7.07 0l42.93 42.928a5 5 0 0 1 0 7.072l-42.93 42.928a5 5 0 0 1-7.07 0L3.535 53.537a5 5 0 0 1 0-7.072l42.93-42.928Z"/><path fill="#2D76F9" d="M50 37.5a2.083 2.083 0 0 1 2.083 2.083v8.334h4.167a2.083 2.083 0 0 1 0 4.166H50A2.083 2.083 0 0 1 47.917 50V39.583A2.083 2.083 0 0 1 50 37.5Z"/><path fill="#2D76F9" d="M29.167 50a20.833 20.833 0 1 0 41.666 0 20.833 20.833 0 0 0-41.666 0Zm18.75-10.417a2.083 2.083 0 1 1 4.166 0v8.334h4.167a2.083 2.083 0 0 1 0 4.166H50A2.083 2.083 0 0 1 47.917 50V39.583Z" opacity=".5"/><path fill="#212121" d="M153.04 59.084c.288.432.432.852.432 1.26 0 .552-.228 1.008-.684 1.368-.432.36-.948.54-1.548.54a2.61 2.61 0 0 1-1.116-.252 2.576 2.576 0 0 1-.864-.828l-4.788-7.272c-.48-.768-.996-1.308-1.548-1.62-.528-.312-1.224-.468-2.088-.468h-3.528v8.064c0 .72-.204 1.296-.612 1.728-.408.408-.96.612-1.656.612s-1.26-.204-1.692-.612c-.408-.432-.612-1.008-.612-1.728v-21.06c0-.696.192-1.236.576-1.62.408-.384.96-.576 1.656-.576h9c2.88 0 5.064.648 6.552 1.944 1.512 1.272 2.268 3.12 2.268 5.544 0 1.968-.564 3.588-1.692 4.86-1.104 1.248-2.676 2.052-4.716 2.412a4.539 4.539 0 0 1 1.836.9c.528.432 1.044 1.032 1.548 1.8l3.276 5.004Zm-9.72-10.836c1.752 0 3.036-.324 3.852-.972.816-.672 1.224-1.692 1.224-3.06 0-1.392-.408-2.4-1.224-3.024-.816-.648-2.1-.972-3.852-.972h-6.048v8.028h6.048Zm27.983 8.928c.408 0 .732.156.972.468.264.312.396.732.396 1.26 0 .744-.444 1.368-1.332 1.872-.816.456-1.74.828-2.772 1.116a11.915 11.915 0 0 1-2.952.396c-2.832 0-5.076-.816-6.732-2.448-1.656-1.632-2.484-3.864-2.484-6.696 0-1.8.36-3.396 1.08-4.788.72-1.392 1.728-2.472 3.024-3.24 1.32-.768 2.808-1.152 4.464-1.152 1.584 0 2.964.348 4.14 1.044 1.176.696 2.088 1.68 2.736 2.952.648 1.272.972 2.772.972 4.5 0 1.032-.456 1.548-1.368 1.548h-10.62c.144 1.656.612 2.88 1.404 3.672.792.768 1.944 1.152 3.456 1.152.768 0 1.44-.096 2.016-.288.6-.192 1.272-.456 2.016-.792.72-.384 1.248-.576 1.584-.576Zm-6.228-10.044c-1.224 0-2.208.384-2.952 1.152-.72.768-1.152 1.872-1.296 3.312h8.136c-.048-1.464-.408-2.568-1.08-3.312-.672-.768-1.608-1.152-2.808-1.152Zm32.337-3.168c1.92 0 3.384.576 4.392 1.728 1.032 1.128 1.548 2.964 1.548 5.508v8.856c0 .696-.216 1.236-.648 1.62-.408.36-.948.54-1.62.54-.648 0-1.188-.18-1.62-.54-.408-.384-.612-.924-.612-1.62V51.2c0-1.32-.24-2.256-.72-2.808-.456-.576-1.164-.864-2.124-.864-1.176 0-2.112.408-2.808 1.224-.696.792-1.044 1.884-1.044 3.276v8.028c0 .696-.216 1.236-.648 1.62-.408.36-.936.54-1.584.54s-1.188-.18-1.62-.54c-.432-.384-.648-.924-.648-1.62V51.2c0-1.32-.24-2.256-.72-2.808-.456-.576-1.164-.864-2.124-.864-1.176 0-2.112.408-2.808 1.224-.672.792-1.008 1.884-1.008 3.276v8.028c0 .696-.216 1.236-.648 1.62-.432.36-.972.54-1.62.54-.648 0-1.188-.18-1.62-.54-.408-.384-.612-.924-.612-1.62V46.124c0-.672.216-1.188.648-1.548.432-.36.972-.54 1.62-.54.624 0 1.128.18 1.512.54.408.336.612.828.612 1.476v.864c.552-.96 1.284-1.692 2.196-2.196.936-.504 2.004-.756 3.204-.756 2.64 0 4.404 1.104 5.292 3.312.528-1.008 1.308-1.812 2.34-2.412 1.032-.6 2.196-.9 3.492-.9Zm12.746 18.252c-.648 0-1.188-.18-1.62-.54-.408-.384-.612-.924-.612-1.62V46.16c0-.696.204-1.224.612-1.584.432-.36.972-.54 1.62-.54.648 0 1.188.18 1.62.54.432.36.648.888.648 1.584v13.896c0 .696-.216 1.236-.648 1.62-.432.36-.972.54-1.62.54Zm0-21.384c-.816 0-1.464-.216-1.944-.648-.48-.456-.72-1.044-.72-1.764s.24-1.296.72-1.728c.48-.432 1.128-.648 1.944-.648.792 0 1.428.216 1.908.648.504.432.756 1.008.756 1.728s-.24 1.308-.72 1.764c-.48.432-1.128.648-1.944.648Zm17.133 3.132c2.112 0 3.684.6 4.716 1.8 1.032 1.2 1.548 3.012 1.548 5.436v8.856c0 .672-.204 1.2-.612 1.584-.384.384-.924.576-1.62.576-.696 0-1.248-.192-1.656-.576-.408-.384-.612-.912-.612-1.584v-8.604c0-1.368-.264-2.364-.792-2.988-.504-.624-1.308-.936-2.412-.936-1.296 0-2.34.408-3.132 1.224-.768.816-1.152 1.908-1.152 3.276v8.028c0 .672-.204 1.2-.612 1.584-.408.384-.96.576-1.656.576s-1.248-.192-1.656-.576c-.384-.384-.576-.912-.576-1.584V46.124c0-.624.204-1.128.612-1.512.408-.384.96-.576 1.656-.576.624 0 1.128.192 1.512.576.408.36.612.84.612 1.44v.972a6.088 6.088 0 0 1 2.412-2.268c1.008-.528 2.148-.792 3.42-.792Zm25.522-7.524c.672 0 1.224.192 1.656.576.432.384.648.888.648 1.512v21.528c0 .648-.204 1.164-.612 1.548-.408.384-.948.576-1.62.576-.672 0-1.212-.192-1.62-.576-.408-.384-.612-.9-.612-1.548v-.9a5.608 5.608 0 0 1-2.304 2.304c-.984.552-2.112.828-3.384.828-1.512 0-2.868-.384-4.068-1.152-1.176-.768-2.1-1.848-2.772-3.24-.648-1.416-.972-3.036-.972-4.86 0-1.824.324-3.42.972-4.788.672-1.368 1.596-2.424 2.772-3.168 1.176-.744 2.532-1.116 4.068-1.116 1.272 0 2.4.264 3.384.792a5.494 5.494 0 0 1 2.268 2.232v-8.532c0-.6.192-1.08.576-1.44.408-.384.948-.576 1.62-.576Zm-6.66 22.356c1.44 0 2.544-.492 3.312-1.476.792-.984 1.188-2.388 1.188-4.212 0-1.824-.396-3.216-1.188-4.176-.768-.984-1.86-1.476-3.276-1.476-1.44 0-2.556.48-3.348 1.44-.792.96-1.188 2.34-1.188 4.14 0 1.824.396 3.24 1.188 4.248.792 1.008 1.896 1.512 3.312 1.512Z"/><path fill="#2D76F9" d="M280.662 43.964c1.92 0 3.384.576 4.392 1.728 1.032 1.128 1.548 2.964 1.548 5.508v8.856c0 .696-.216 1.236-.648 1.62-.408.36-.948.54-1.62.54-.648 0-1.188-.18-1.62-.54-.408-.384-.612-.924-.612-1.62V51.2c0-1.32-.24-2.256-.72-2.808-.456-.576-1.164-.864-2.124-.864-1.176 0-2.112.408-2.808 1.224-.696.792-1.044 1.884-1.044 3.276v8.028c0 .696-.216 1.236-.648 1.62-.408.36-.936.54-1.584.54s-1.188-.18-1.62-.54c-.432-.384-.648-.924-.648-1.62V51.2c0-1.32-.24-2.256-.72-2.808-.456-.576-1.164-.864-2.124-.864-1.176 0-2.112.408-2.808 1.224-.672.792-1.008 1.884-1.008 3.276v8.028c0 .696-.216 1.236-.648 1.62-.432.36-.972.54-1.62.54-.648 0-1.188-.18-1.62-.54-.408-.384-.612-.924-.612-1.62V46.124c0-.672.216-1.188.648-1.548.432-.36.972-.54 1.62-.54.624 0 1.128.18 1.512.54.408.336.612.828.612 1.476v.864c.552-.96 1.284-1.692 2.196-2.196.936-.504 2.004-.756 3.204-.756 2.64 0 4.404 1.104 5.292 3.312.528-1.008 1.308-1.812 2.34-2.412 1.032-.6 2.196-.9 3.492-.9Zm24.446 13.212c.408 0 .732.156.972.468.264.312.396.732.396 1.26 0 .744-.444 1.368-1.332 1.872-.816.456-1.74.828-2.772 1.116a11.915 11.915 0 0 1-2.952.396c-2.832 0-5.076-.816-6.732-2.448-1.656-1.632-2.484-3.864-2.484-6.696 0-1.8.36-3.396 1.08-4.788.72-1.392 1.728-2.472 3.024-3.24 1.32-.768 2.808-1.152 4.464-1.152 1.584 0 2.964.348 4.14 1.044 1.176.696 2.088 1.68 2.736 2.952.648 1.272.972 2.772.972 4.5 0 1.032-.456 1.548-1.368 1.548h-10.62c.144 1.656.612 2.88 1.404 3.672.792.768 1.944 1.152 3.456 1.152.768 0 1.44-.096 2.016-.288.6-.192 1.272-.456 2.016-.792.72-.384 1.248-.576 1.584-.576Zm-6.228-10.044c-1.224 0-2.208.384-2.952 1.152-.72.768-1.152 1.872-1.296 3.312h8.136c-.048-1.464-.408-2.568-1.08-3.312-.672-.768-1.608-1.152-2.808-1.152Z"/></svg>